<?xml version="1.0" encoding="utf-8"?>
<!-- Generator: Adobe Illustrator 24.1.2, SVG Export Plug-In . SVG Version: 6.00 Build 0)  -->
<svg version="1.1" id="Layer_1" xmlns="http://www.w3.org/2000/svg" xmlns:xlink="http://www.w3.org/1999/xlink" x="0px" y="0px"
	 viewBox="0 0 521.3 397.8" style="enable-background:new 0 0 521.3 397.8;" xml:space="preserve">
<style type="text/css">
	.st0{opacity:0.1;fill:#04A0F4;enable-background:new    ;}
	.st1{fill:none;stroke:#9E9E9E;stroke-miterlimit:10;}
	.st2{fill:#04A0F4;}
	.st3{fill:#FFFFFF;stroke:#9E9E9E;stroke-miterlimit:10;}
	.st4{fill:#F4F5F0;stroke:#9E9E9E;stroke-miterlimit:10;}
	.st5{fill:none;stroke:#9E9E9E;stroke-width:3;stroke-linecap:round;stroke-miterlimit:10;}
	.st6{fill:#C9C9C7;}
	.st7{fill:#FFBE4F;}
	.st8{clip-path:url(#SVGID_2_);}
	.st9{fill:#FFFFFF;stroke:#484949;stroke-miterlimit:10;}
	.st10{fill:none;stroke:#484949;stroke-miterlimit:10;}
	.st11{fill:#484949;}
	.st12{fill:none;stroke:#7C7C7C;stroke-miterlimit:10;}
	.st13{fill:#FFFFFF;}
	.st14{fill:none;stroke:#999999;stroke-width:2;stroke-miterlimit:10;}
	.st15{fill:none;}
	.st16{fill:#F4F5EE;}
</style>
<g>
	<g id="Layer_2_1_">
		<g id="Layer_1-2">
			<rect x="160.4" y="109.4" class="st0" width="182.8" height="62.5"/>
			<rect x="160.4" y="184.2" class="st0" width="182.8" height="62.5"/>
			<rect x="160.4" y="259" class="st0" width="182.8" height="62.5"/>
			<line class="st1" x1="170.2" y1="118.7" x2="249.1" y2="118.7"/>
			<path class="st0" d="M391,253.1c2.2,1.8,4.2,3.7,6.2,5.7c12.2,12,22.2,26.9,37.5,34.4c23.9,11.5,42.3-5.9,51.2-27.7
				c5.7-13.9,6.9-29.5,5.1-44.4c-1-8.5-3.2-17.3-8.8-23.8c-20.7-23.9-59.3-25.2-87.8-29.9c-17.9-2.9-35-9.3-52-15.8
				c-26-10-51.9-20.5-75.3-35.7c-20.6-13.3-38.9-29.8-58.9-44s-42.5-26.1-66.9-28.4c-29.5-2.7-59.1,9.3-82,28.3
				C18.7,105.3-1.9,160.4,2.7,212.9C6.4,255,34,277.9,74.1,286.1c39.7,8.1,81.1-0.3,119.1-14.4c34.8-12.9,70.7-40.2,107-46
				C331.9,220.6,366.7,232.5,391,253.1z"/>
			<path class="st2" d="M218.4,88.8H266c3.5,0,6.4,2.9,6.4,6.4v22.7c0,3.5-2.9,6.4-6.4,6.4h-47.7c-3.5,0-6.4-2.9-6.4-6.4V95.2
				C212,91.7,214.9,88.8,218.4,88.8z"/>
			<path class="st2" d="M283.3,88.8H331c3.5,0,6.4,2.9,6.4,6.4v22.7c0,3.5-2.9,6.4-6.4,6.4h-47.7c-3.5,0-6.4-2.9-6.4-6.4V95.2
				C276.9,91.7,279.8,88.8,283.3,88.8z"/>
			<path class="st3" d="M207.4,108.2V95.4c0-3.6-3.2-6.6-7.2-6.6h-45.7c-4,0-7.2,2.9-7.2,6.6v224h283.2V108.2H207.4z"/>
			<rect x="305.2" y="137.8" class="st4" width="100.4" height="16.6"/>
			<circle class="st4" cx="312.3" cy="176.5" r="7.1"/>
			<circle class="st4" cx="312.3" cy="197.1" r="7.1"/>
			<line class="st5" x1="327.4" y1="176.5" x2="385.1" y2="176.5"/>
			<line class="st5" x1="314" y1="146.1" x2="371.7" y2="146.1"/>
			<line class="st5" x1="327.4" y1="197.1" x2="346.2" y2="197.1"/>
			<line class="st5" x1="357.4" y1="197.1" x2="395.3" y2="197.1"/>
			<circle class="st4" cx="312.3" cy="217.4" r="7.1"/>
			<line class="st5" x1="327.4" y1="217.4" x2="366.3" y2="217.4"/>
			<line class="st5" x1="376.4" y1="217.4" x2="388.9" y2="217.4"/>
			<polygon class="st6" points="398.3,149.4 401.6,143.9 395.1,143.9 			"/>
			<circle class="st2" cx="312.3" cy="176.5" r="4"/>
			<circle class="st7" cx="194.9" cy="150.3" r="21.5"/>
			<g>
				<defs>
					<circle id="SVGID_1_" cx="194.9" cy="150.3" r="21.5"/>
				</defs>
				<clipPath id="SVGID_2_">
					<use xlink:href="#SVGID_1_"  style="overflow:visible;"/>
				</clipPath>
				<g class="st8">
					<path class="st9" d="M191.5,154.7c-0.1,0.3-0.2,0.6-0.3,0.9c-0.8,2.1-2.2,3.8-4.1,4.9c-1.5,0.9-3.3,1.3-4.8,2.1
						c-1.7,0.8-2.9,2.5-2.8,4.5c-0.1,1,0,1.9,0.3,2.8c0.7,1.4,1.8,2.6,3.2,3.3c5.1,2.9,11.3,3.4,17.1,2.5c1.1-0.1,2.3-0.5,3.2-1.1
						c1.6-1.2,1.9-3.5,1.8-5.5c0-1.9-0.3-3.7-1-5.4c-0.5-1.2-1-1.3-2.1-1.8c-1.3-0.6-2.4-1.4-3.5-2.2c-0.3-0.2-0.6-0.5-0.7-0.9
						c0-0.4,0.1-0.7,0.3-1c0.6-1,1.2-1.9,2-2.8c0.8,0.2,1.6,0.3,2.4,0.3c1,0,1.9-0.2,2.8-0.6c0.9-0.8,1.3-2,1.1-3.1
						c-0.7-4.3-1.4-9.8-4.7-11.7c-2-0.9-4.5-0.4-6.8-0.4c-1.8,0.2-3.6,0.7-4.7,2.2c-1.2,1.4-1.7,3.2-1.6,5c0.2,1.5,1,2.9,2.2,3.8
						C192.4,151.5,192.1,153,191.5,154.7z"/>
					<path class="st9" d="M196,152c-0.1,0.2-0.4,0.4-0.6,0.4c-0.2,0-0.4-0.1-0.5-0.2c-0.8-0.5-1.3-1.3-1.4-2.2
						c-0.1-0.4,0-0.7,0.1-1.1c0.2-0.3,0.5-0.6,0.9-0.6c0.2,0,0.3,0.1,0.4,0.1c0.4,0.2,0.9,0.4,1.3,0.6"/>
					<path class="st9" d="M199.2,164.6c0.3-0.6,0.4-1.2,0.4-1.9c0-1.5-0.7-2.4-1.3-3.7c0.2,0.4,3.4,0.5,3.9,0.7
						c2,0.6,3.7,1.7,5.2,3.1c1.1,1.2,2.1,2.5,2.9,3.9c0,0-4.9,4-5.3,4.3c-0.1,0.1-0.1,0.1-0.2,0.2c0,0.1,0,0.2,0,0.3
						c0.5,1.5,0.7,3,0.6,4.6c-0.1,1.8-0.3,3.5-0.8,5.2c-0.6,1.6-1.1,3.3-1.4,5c-0.4,2.4-0.1,4.9,1,7.1c-0.8-1.6-11.9,2-13.2,2.4
						c-2.2,0.7-4.4,1.5-6.5,2.5c-1.9,0.8-4.5,1.8-6.1,3.1c0.8-5.9,0-27.7,0.3-33.5c0-1.2,0.3-2.4,0.8-3.5c1.5-2.9,4.9-3.5,7.8-4.2
						c0,0,0.1,0,0.1,0c0.1,0,0.1,0.1,0.1,0.1c1,2.1,2.8,3.8,5,4.5c1.6,0.7,3.3,0.9,4.9,0.7c0.6-0.1,1.2-0.3,1.6-0.7
						C199,164.9,199.1,164.8,199.2,164.6z"/>
					<path class="st10" d="M203.2,154.9c-1.8,0.1-3.5-0.2-5.2-0.9"/>
					<path class="st9" d="M197.9,157.8c-0.9,1.4-1.2,3.1-1,4.8"/>
					<path class="st11" d="M202.8,140.2c-0.3-1.2-0.5-2.6-1.4-3.5c-1.4-1.4-3.6-1.5-5.6-1.5c-2.7,0.1-5.5,1.1-6.7,3.7
						c-0.3,0.8-0.6,1.7-1.1,2.4c-1.2,1.6-3.8,2-4.5,3.8c-1,2.4,1.6,5.3,0.3,7.6c-0.7,1.2-2.4,1.1-3.5,1.9c-0.9,0.8-1.4,2-1.2,3.2
						c0.2,0.9,0.5,1.9,0.9,2.7c0.2,0.7,0.3,1.3,0.5,2c2.4-0.2,4.6-0.9,7-0.7c0.9,0.2,1.9,0.2,2.8,0c2.7-0.9,1.3-5.8,1.7-7.9
						c0.2-0.8,0.5-1.6,0.9-2.2c0.4-0.5,0.8-0.9,1.1-1.4c0.2-0.4,0.1-0.7,0.4-1c0.4-0.3,1.2-0.2,1.8-0.2c0.8,0,1.6,0.2,2.3,0.5
						c-0.4-1.8,0.2-3.7,1.5-5c0.2-0.2,0.4-0.4,0.5-0.7c0-0.2,0-0.3,0-0.5c0-1,0.1-2.5,1.2-3.1c0.5-0.3,0.7-0.1,1.2-0.1L202.8,140.2z
						"/>
				</g>
			</g>
			<circle class="st12" cx="194.9" cy="150.3" r="21.5"/>
			<line class="st5" x1="192.5" y1="182.4" x2="251.9" y2="182.4"/>
			<line class="st5" x1="208" y1="192" x2="240.5" y2="192"/>
			<line class="st5" x1="192.5" y1="201.4" x2="217.7" y2="201.4"/>
			<line class="st5" x1="190.8" y1="210.9" x2="203.4" y2="210.9"/>
			<line class="st5" x1="212" y1="210.9" x2="253.4" y2="210.9"/>
			<line class="st5" x1="193" y1="220.5" x2="261.6" y2="220.5"/>
			<line class="st5" x1="178" y1="192" x2="196.3" y2="192"/>
			<line class="st5" x1="229.9" y1="201.4" x2="264.7" y2="201.4"/>
			<path class="st2" d="M136,284.3c1.6,27.7-19.6,51.4-47.4,53c-9.5,0.5-19-1.6-27.3-6.3l-32.1,7.4l16.9-20.4
				c-17-21.9-13.1-53.5,8.8-70.5s53.5-13.1,70.5,8.8C131.8,264.3,135.5,274.1,136,284.3L136,284.3z"/>
			<path class="st13" d="M65,277.8L65,277.8c1.9,0,3.5,1.6,3.5,3.5v15c0,1.9-1.6,3.5-3.5,3.5l0,0c-1.9,0-3.5-1.6-3.5-3.5v-15
				C61.5,279.4,63.1,277.8,65,277.8z"/>
			<path class="st13" d="M53,284.8L53,284.8c1.9,0,3.5,1.6,3.5,3.5l0,0c0,1.9-1.6,3.5-3.5,3.5l0,0c-1.9,0-3.5-1.6-3.5-3.5l0,0
				C49.5,286.4,51.1,284.8,53,284.8z"/>
			<path class="st13" d="M76.8,269.8L76.8,269.8c1.9,0,3.5,1.6,3.5,3.5v31c0,1.9-1.6,3.5-3.5,3.5h0c-1.9,0-3.5-1.6-3.5-3.5v-31
				C73.3,271.4,74.8,269.8,76.8,269.8z"/>
			<path class="st13" d="M88.5,253.8L88.5,253.8c1.9,0,3.5,1.6,3.5,3.5v63c0,1.9-1.6,3.5-3.5,3.5l0,0c-1.9,0-3.5-1.6-3.5-3.5v-63
				C85,255.4,86.6,253.8,88.5,253.8z"/>
			<path class="st13" d="M100.3,269.8L100.3,269.8c1.9,0,3.5,1.6,3.5,3.5v31c0,1.9-1.6,3.5-3.5,3.5h0c-1.9,0-3.5-1.6-3.5-3.5v-31
				C96.8,271.4,98.3,269.8,100.3,269.8z"/>
			<path class="st13" d="M112,277.8L112,277.8c1.9,0,3.5,1.6,3.5,3.5v15c0,1.9-1.6,3.5-3.5,3.5l0,0c-1.9,0-3.5-1.6-3.5-3.5v-15
				C108.5,279.4,110.1,277.8,112,277.8z"/>
			<circle class="st7" cx="58.7" cy="180.5" r="30.9"/>
			<polygon class="st7" points="20.9,158.9 36.2,178.6 44,161.8 			"/>
			<path class="st13" d="M78.7,178L78.7,178c1.2,0,2.2,1,2.2,2.1v0c0,1.2-1,2.1-2.1,2.1h0c-1.2,0-2.1-1-2.1-2.1v0
				C76.5,178.9,77.5,178,78.7,178z"/>
			<path class="st13" d="M43.1,173.1L43.1,173.1c1.2,0,2.2,1,2.2,2.1v9.2c0,1.2-1,2.1-2.1,2.1h0c-1.2,0-2.1-1-2.1-2.1v-9.2
				C41,174,41.9,173.1,43.1,173.1z"/>
			<path class="st13" d="M50.3,168.1L50.3,168.1c1.2,0,2.2,1,2.2,2.1v19c0,1.2-1,2.1-2.1,2.1h0c-1.2,0-2.1-1-2.1-2.1v-19
				C48.2,169.1,49.1,168.1,50.3,168.1z"/>
			<path class="st13" d="M57.5,173.1L57.5,173.1c1.2,0,2.2,1,2.2,2.1v9.2c0,1.2-1,2.1-2.1,2.1h0c-1.2,0-2.1-1-2.1-2.1v-9.2
				C55.4,174,56.3,173.1,57.5,173.1z"/>
			<path class="st13" d="M64.7,161.4L64.7,161.4c1.2,0,2.2,1,2.2,2.1V196c0,1.2-1,2.1-2.1,2.1h0c-1.2,0-2.1-1-2.1-2.1v-32.5
				C62.6,162.4,63.5,161.4,64.7,161.4z"/>
			<path class="st13" d="M71.9,173.1L71.9,173.1c1.2,0,2.2,1,2.2,2.1v9.2c0,1.2-1,2.1-2.1,2.1h0c-1.2,0-2.1-1-2.1-2.1v-9.2
				C69.8,174,70.7,173.1,71.9,173.1z"/>
			<path class="st2" d="M183.4,184.4c1.2,0,2.2-1,2.2-2.2c0-0.2,0-0.4-0.1-0.5c-0.3-1-1.2-1.7-2.3-1.7h-44.6c-1.2,0-2.2,1-2.2,2.2
				h-7.2v37.9h7.2c0,1.2,1,2.2,2.2,2.2h42.5c1,0,2-0.7,2.3-1.7c0.3-1.2-0.4-2.4-1.6-2.7c-0.2,0-0.4-0.1-0.6-0.1h-15.9
				c-1.4,0-2.5-1.1-2.5-2.5c0,0,0,0,0,0l0,0c0-1.4,1.1-2.5,2.5-2.5h15.7c1,0,2-0.7,2.3-1.7c0.3-1.2-0.4-2.4-1.6-2.7
				c-0.2,0-0.4-0.1-0.6-0.1h-15.9c-1.4,0-2.5-1.1-2.5-2.5l0,0c0-1.4,1.1-2.5,2.5-2.5c0,0,0,0,0,0h15.9c1.2,0,2.2-1,2.2-2.2l0,0
				c0-1.2-1-2.2-2.2-2.2h-15.9c-1.4,0-2.5-1.1-2.5-2.5l0,0c0-1.4,1.1-2.5,2.5-2.5h0h4.1c1.2,0,2.2-1,2.2-2.2l0,0
				c0-1.2-1-2.2-2.2-2.2h-4.1c-1.4,0-2.5-1.1-2.5-2.5l0,0c0-1.4,1.1-2.5,2.5-2.5h0L183.4,184.4z"/>
			<circle class="st2" cx="137.7" cy="201" r="21.1"/>
			<path class="st13" d="M145.8,210.8L145.8,210.8c-0.9,0-1.6-0.7-1.6-1.6v-14.5c0-0.9,0.7-1.6,1.6-1.6h0c0.9,0,1.6,0.7,1.6,1.6
				v14.5C147.4,210.1,146.7,210.8,145.8,210.8z"/>
			<path class="st13" d="M140.3,207.1L140.3,207.1c-0.9,0-1.6-0.7-1.6-1.6v-7c0-0.9,0.7-1.6,1.6-1.6h0c0.9,0,1.6,0.7,1.6,1.6v7
				C141.9,206.3,141.2,207.1,140.3,207.1z"/>
			<path class="st13" d="M134.7,216L134.7,216c-0.9,0-1.6-0.7-1.6-1.6v-24.9c0-0.9,0.7-1.6,1.6-1.6h0c0.9,0,1.6,0.7,1.6,1.6v24.9
				C136.4,215.3,135.7,216,134.7,216z"/>
			<path class="st13" d="M129.2,207.1L129.2,207.1c-0.9,0-1.6-0.7-1.6-1.6v-7c0-0.9,0.7-1.6,1.6-1.6h0c0.9,0,1.6,0.7,1.6,1.6v7
				C130.9,206.3,130.1,207.1,129.2,207.1z"/>
			<path class="st14" d="M306.2,260.5l1.3-7.1c0.2-0.9,0.9-1.5,1.8-1.5l0,0c1,0,1.8,0.7,1.9,1.7l1.4,14.6c0.1,1,0.9,1.8,2,1.8l0,0
				c1,0,1.8-0.7,2-1.7l2.3-20c0.1-0.7,0.7-1.3,1.5-1.3l0,0c0.7,0,1.3,0.5,1.4,1.2l1.4,28.7c0.2,1,1.1,1.8,2.2,1.8l0,0
				c1,0,1.9-0.7,2.2-1.7l1.7-28.8c0.2-0.7,0.8-1.1,1.4-1.1h0.2c0.7,0,1.4,0.6,1.5,1.3l2.4,20c0.1,1,1,1.7,2,1.7l0,0
				c1,0,1.8-0.7,2-1.7l2-15.2c0.1-0.7,0.7-1.3,1.4-1.3l0,0c0.7,0,1.3,0.5,1.4,1.2l1.3,7.6c0.2,1,1,1.7,2,1.7h4.4"/>
			
				<rect x="410.8" y="255.8" transform="matrix(0.7776 -0.6288 0.6288 0.7776 -74.3777 325.4366)" class="st11" width="24.1" height="24.1"/>
			<path class="st3" d="M397.8,290.9c0.6,1.3,1.8,2.1,3.2,2.1c1.5-0.1,2.7-1.4,3.6-2.6c4.5-6.1,6.9-13.2,11-19.6
				c4.4-6.7,12.2-9.7,19.8-9.8c0.3,0,0.6,0,0.8-0.2c0.2-0.2,0.3-0.4,0.3-0.6c1.6-6.3-1.5-13.5-8.7-12.2c-4.1,0.7-7.9,1.8-11.9,2.8
				c-3.6,0.9-5,2.6-7,5.9c-3.4,5.6-6.3,11.5-8.6,17.7C398.7,278.9,395.5,286.1,397.8,290.9z"/>
			<path class="st3" d="M388.4,289.2c0.6,1.4,2,2.4,3.6,2.4c1.7-0.1,2.9-1.5,4-2.9c6.4-8.7,10.8-18.8,15.4-28.7
				c0.3-0.7,0.7-1.4,1.3-1.9c0.5-0.3,1-0.4,1.5-0.5c5.3-1,10.7-1.5,16.1-1.6c0.3,0,0.6,0,0.9-0.2c0.2-0.2,0.3-0.4,0.3-0.7
				c1.8-7-1.7-15-9.7-13.6c-4.5,0.8-8.8,2-13.2,3.1c-4,1-5.6,2.9-7.8,6.5c-3.8,6.2-7.1,12.8-9.6,19.7
				C389.5,275.9,385.9,283.9,388.4,289.2z"/>
			<path class="st13" d="M499.1,339.4c4.6-2.4,9.6-4.2,14.7-5.3l2.2-0.5l-34.2-42.3l-27,21.8l27.6,40.6
				C487.1,347.9,492.8,342.5,499.1,339.4z"/>
			<path class="st3" d="M376.6,275c0.3,1.5,1.5,2.7,3,3c1.7,0.2,3.2-1,4.5-2.1c8-7.3,14.3-16.3,20.6-25.1c0.6-1.2,1.9-1.9,3.2-1.8
				c5.4,0.1,10.8,0.6,16.1,1.6c0.3,0.1,0.6,0.1,0.9,0c0.2-0.1,0.4-0.4,0.5-0.6c3.1-6.5,1.3-15-6.8-15.2c-4.6-0.1-9,0.3-13.6,0.5
				c-4.1,0.2-6,1.8-8.9,4.9c-5,5.4-9.4,11.2-13.2,17.4C380.2,262.1,375.2,269.3,376.6,275z"/>
			<path class="st3" d="M499.1,339.4c4.6-2.4,9.6-4.2,14.7-5.3c1.1-0.2,2.2-0.4,3.3-0.7c-6.8-7.6-12.6-14.2-21.8-25.3
				c-12.9-15.7-25.9-31.6-33.5-50.4c-3.1-7.9-5.2-16.6-13-21.5c-2.6-1.4-5.3-2.6-8.1-3.3c-9.6-3-19.2-5.9-29-8.5
				c-2.1-0.6-4.4-1.1-6.5-0.4c-1.8,0.7-3.4,1.8-4.6,3.2l-25.1,24.2c-1.7,1.6-3.8,4.2-1.7,6.4c1.6,1.7,6.1,0.2,8.1-0.2
				c3.5-0.9,6.8-2.2,9.8-4c5.5-3.2,10.4-7.4,15.7-10.9c0.3-0.2,0.6-0.4,1-0.4c0.4,0,0.7,0.1,1,0.3l6.7,3.2c1.7,0.8,4,1.2,5.5,2.2
				c0.6,0.5,1,1.1,1.2,1.7c1.9,4.2,3.7,8.5,5.3,12.8c0.7,1.5,0.9,3.1,0.6,4.7c-0.4,1-0.9,2-1.7,2.8l-5.8,7.2c2.7,1.7,4.7,4.4,6.7,7
				c8.9,11.8,17.9,23.6,26.8,35.4l41.7,21.4C497.3,340.4,498.2,339.9,499.1,339.4z"/>
			<line class="st15" x1="479.9" y1="263.2" x2="354.6" y2="262.4"/>
			<path class="st2" d="M479.9,263L479.9,263c0,3.9-3.2,7.1-7.1,7c0,0,0,0,0,0L366,269.5l0.1-14.2l106.8,0.5
				C476.8,255.9,480,259.1,479.9,263z"/>
			<path class="st16" d="M351.3,263.7l14.7,5.9l0.1-14.3l-14.8,5.6c-0.8,0.2-1.2,1-1,1.7C350.4,263.1,350.8,263.5,351.3,263.7z"/>
			<path class="st11" d="M351.3,260.9c-0.8,0.2-1.2,1-1,1.7c0.1,0.5,0.5,0.9,1,1l7.4,2.9V258L351.3,260.9z"/>
			<path class="st3" d="M425.4,255.6c-0.9-2-1.7-4-2.6-6c-0.2-0.7-0.7-1.3-1.2-1.7c-1.5-1-3.9-1.4-5.5-2.2l-6.7-3.2
				c-0.3-0.2-0.7-0.3-1-0.3c-0.4,0.1-0.7,0.2-1,0.4c-5.3,3.6-10.2,7.7-15.7,10.9c-3.1,1.8-6.4,3.2-9.8,4c-2,0.4-6.5,2-8.1,0.2
				c-2.1-2.2,0.1-4.8,1.7-6.4l25.1-24.2c1.3-1.4,2.9-2.6,4.6-3.3c2.1-0.6,4.4-0.1,6.5,0.4c9.8,2.5,19.4,5.4,29,8.5
				c2.8,0.8,5.6,1.9,8.1,3.3c7.8,4.9,9.4,12.4,12.6,20.3"/>
			<path class="st1" d="M373.5,253.6c1.6-0.2,3.2-0.7,4.6-1.5c1-0.4,1.8-1,2.3-1.9c0.4-0.9,0-2.3-1-2.4"/>
			<path class="st3" d="M447.6,282.8c-4.9-4.3-12.2-3.8-18.5-5.7c-3.9-1.2-7.4-3.4-11-5.4c-9.4-5.3-19.2-9.8-29.3-13.5
				c-8.6-3.2-13.2-2-15.5,2.7c-3,6.1,9.6,13.8,12.7,15.7c9.9,5.6,19.4,11.8,28.5,18.5c6,4.5,11.2,10,17.1,14.7
				c7.8,6.2,17.6,9.9,24.9,16.7c6.2,5.7,7.6,8,19.3,23.7c1-1.3,2.1-2.7,3.2-4"/>
			<path class="st1" d="M375.6,261.5c1.4-3.6,6-3.9,8.5-3.3c2.5,0.6,4.7,2.7,4.2,4.3c-1,2.5-2.1,4.9-3.4,7.2c-0.5,0.9-2,2.6-3.1,2
				C380.6,271.1,373.2,267.9,375.6,261.5z"/>
			<path class="st3" d="M476.4,361.7c0.9-2.4,2-4.7,3.3-6.9c2.3-3.5,5.1-6.6,8.4-9.1c9.3-7.1,25-5.3,31.8-15.8
				c-4.8-6-9.4-12.3-14.1-18.4c-1-1.3-14.5-17.3-13.9-18.1l-37,49.7c6.6,7.2,13.8,14.2,20,21.7C475.4,363.8,475.9,362.7,476.4,361.7
				z"/>
			<rect x="173.4" y="239.4" class="st4" width="106.7" height="55.5"/>
			<line class="st5" x1="210.4" y1="252.8" x2="262.3" y2="252.8"/>
			<line class="st5" x1="249.1" y1="264.6" x2="258.9" y2="264.6"/>
			<line class="st5" x1="213.9" y1="264.6" x2="223.7" y2="264.6"/>
			<line class="st5" x1="234.8" y1="276.4" x2="265.2" y2="276.4"/>
			<circle class="st7" cx="172.3" cy="264.2" r="15.3"/>
			<path class="st7" d="M242.9,264.2L242.9,264.2c0-2-1.6-3.6-3.6-3.6c0,0,0,0,0,0h-43.8c-1.3,0-2.4-1.1-2.4-2.4l0,0l0,0
				c0-1.3,1.1-2.4,2.4-2.4l0,0h5.4c2,0,3.5-1.6,3.6-3.5c0,0,0,0,0,0l0,0c0-2-1.6-3.5-3.5-3.5c0,0,0,0,0,0h-26.8
				c-0.9,0-1.7,0.8-1.7,1.7c0,0,0,0,0,0v3.7c0,0.9,0.8,1.7,1.7,1.7l0,0c0.9,0,1.7,0.8,1.7,1.7c0,0,0,0,0,0v1.3
				c0,0.9-0.8,1.7-1.7,1.7c0,0,0,0,0,0l0,0c-0.9,0-1.7,0.8-1.7,1.7v3.7c0,0.9,0.8,1.7,1.7,1.7h2.8c0.9,0,1.7,0.8,1.7,1.7
				c0,0,0,0,0,0v1.3c0,0.9-0.8,1.7-1.7,1.7c0,0,0,0,0,0h-2.8c-0.9,0-1.7,0.8-1.7,1.7v3.7c0,0.9,0.8,1.7,1.7,1.7c0,0,0,0,0,0h51.2
				c2,0,3.5-1.6,3.5-3.5l0,0c0-2-1.6-3.5-3.5-3.5h-33.7c-1.3,0-2.4-1.1-2.4-2.4l0,0l0,0c0-1.3,1.1-2.4,2.4-2.4l0,0h47.6
				C241.3,267.7,242.9,266.1,242.9,264.2C242.9,264.2,242.9,264.2,242.9,264.2z"/>
			<path class="st13" d="M179.6,271.4h-0.9c-0.5,0-0.9-0.4-0.9-0.9v-12.7c0-0.5,0.4-0.9,0.9-0.9h0.9c0.5,0,0.9,0.4,0.9,0.9v12.7
				C180.5,271,180.1,271.4,179.6,271.4z"/>
			<path class="st13" d="M175.1,268.4h-0.9c-0.5,0-0.9-0.4-0.9-0.9v-6.6c0-0.5,0.4-0.9,0.9-0.9h0.9c0.5,0,0.9,0.4,0.9,0.9v6.6
				C176,268,175.6,268.4,175.1,268.4z"/>
			<path class="st13" d="M170.7,275.6h-0.9c-0.5,0-0.9-0.4-0.9-0.9v-21.1c0-0.5,0.4-0.9,0.9-0.9h0.9c0.5,0,0.9,0.4,0.9,0.9v21.1
				C171.5,275.2,171.1,275.6,170.7,275.6z"/>
			<path class="st13" d="M166.2,268.4h-0.9c-0.5,0-0.9-0.4-0.9-0.9v-6.6c0-0.5,0.4-0.9,0.9-0.9h0.9c0.5,0,0.9,0.4,0.9,0.9v6.6
				C167.1,268,166.7,268.4,166.2,268.4z"/>
		</g>
	</g>
</g>
</svg>
